<svg width="93" height="24" viewBox="0 0 93 24" fill="none" xmlns="http://www.w3.org/2000/svg">
<path d="M26.64 13.736C26.64 17.24 31.84 16.28 31.84 18.12C31.84 18.76 31.28 19.32 30.16 19.32C29.12 19.32 28.48 18.68 28.48 17.8H26.56C26.56 19.72 27.92 21.08 30.16 21.08C32.4 21.08 33.84 19.64 33.84 18.2C33.84 14.52 28.64 15.48 28.64 13.72C28.64 13.16 29.2 12.6 30.16 12.6C31.12 12.6 31.68 13.16 31.68 14.04H33.52C33.52 12.2 32.16 10.84 30.16 10.84C28 10.84 26.64 12.2 26.64 13.736ZM39.5325 18.76C39.5325 18.76 39.1325 19.32 38.1725 19.32C37.2125 19.32 36.6525 18.76 36.4925 18.04H41.6125C41.6125 18.04 41.6925 17.64 41.6925 17.32C41.6925 15.08 40.0925 13.56 38.1725 13.56C36.1725 13.56 34.4925 15.24 34.4925 17.32C34.4925 19.4 36.1725 21.08 38.1725 21.08C39.8525 21.08 41.0525 19.88 41.4525 18.76H39.5325ZM38.1725 15.32C39.1325 15.32 39.7725 15.96 39.9325 16.76H36.4125C36.5725 15.96 37.2125 15.32 38.1725 15.32ZM47.6287 18.28C47.6287 18.28 47.2287 19.32 46.0287 19.32C44.9887 19.32 44.1887 18.52 44.1887 17.32C44.1887 16.12 44.9887 15.32 46.0287 15.32C47.2287 15.32 47.6287 16.36 47.6287 16.36H49.4688C49.1487 14.92 47.7887 13.56 46.0287 13.56C44.0287 13.56 42.3487 15.24 42.3487 17.32C42.3487 19.4 44.0287 21.08 46.0287 21.08C47.7887 21.08 49.1487 19.72 49.4688 18.28H47.6287ZM53.4088 21.08C54.6088 21.08 55.4888 20.28 55.4888 20.28L55.8088 21H57.1688V13.64H55.3288V17.72C55.3288 18.68 54.6888 19.32 53.8088 19.32C52.9288 19.32 52.2888 18.68 52.2888 17.72V13.64H50.4488V17.96C50.4488 19.88 51.6488 21.08 53.4088 21.08ZM62.0731 13.56C60.9531 13.56 60.3131 14.44 60.3131 14.44L59.9931 13.64H58.6331V21H60.4731V17.08C60.4731 16.12 61.1131 15.48 61.9931 15.48C62.3931 15.48 62.6331 15.56 62.6331 15.56V13.64C62.6331 13.64 62.3931 13.56 62.0731 13.56ZM68.0981 18.76C68.0981 18.76 67.6981 19.32 66.7381 19.32C65.7781 19.32 65.2181 18.76 65.0581 18.04H70.1781C70.1781 18.04 70.2581 17.64 70.2581 17.32C70.2581 15.08 68.6581 13.56 66.7381 13.56C64.7381 13.56 63.0581 15.24 63.0581 17.32C63.0581 19.4 64.7381 21.08 66.7381 21.08C68.4181 21.08 69.6181 19.88 70.0181 18.76H68.0981ZM66.7381 15.32C67.6981 15.32 68.3381 15.96 68.4981 16.76H64.9781C65.1381 15.96 65.7781 15.32 66.7381 15.32Z" fill="white"/>
<path d="M26.44 3.94C26.44 6.36 30.125 5.59 30.125 7.13C30.125 7.68 29.685 8.12 28.75 8.12C27.87 8.12 27.43 7.68 27.43 6.91H26.385C26.385 8.175 27.265 9.055 28.75 9.055C30.235 9.055 31.17 8.12 31.17 7.13C31.17 4.6 27.485 5.37 27.485 3.94C27.485 3.445 27.98 2.95 28.75 2.95C29.465 2.95 29.96 3.445 29.96 4.16H31.005C31.005 2.95 30.07 2.015 28.75 2.015C27.375 2.015 26.44 2.95 26.44 3.94ZM31.94 3.94C31.94 6.36 35.625 5.59 35.625 7.13C35.625 7.68 35.185 8.12 34.25 8.12C33.37 8.12 32.93 7.68 32.93 6.91H31.885C31.885 8.175 32.765 9.055 34.25 9.055C35.735 9.055 36.67 8.12 36.67 7.13C36.67 4.6 32.985 5.37 32.985 3.94C32.985 3.445 33.48 2.95 34.25 2.95C34.965 2.95 35.46 3.445 35.46 4.16H36.505C36.505 2.95 35.57 2.015 34.25 2.015C32.875 2.015 31.94 2.95 31.94 3.94ZM38.87 8.01V2.07H37.825V9H42.17V8.01H38.87ZM46.5721 8.01V5.92H49.8171V4.93H46.5721V3.06H50.0921V2.07H45.5271V9H50.2021V8.01H46.5721ZM53.775 3.995C52.785 3.995 52.345 4.545 52.345 4.545L52.125 4.05H51.41V9H52.4V6.14C52.4 5.48 52.95 4.93 53.61 4.93C54.215 4.93 54.765 5.48 54.765 6.14V9H55.755V6.14C55.755 4.875 54.875 3.995 53.775 3.995ZM60.2624 7.185C60.0974 7.735 59.7124 8.12 59.1074 8.12C58.3924 8.12 57.7324 7.46 57.7324 6.525C57.7324 5.59 58.3924 4.93 59.1074 4.93C59.7124 4.93 60.0974 5.315 60.2624 5.865H61.3074C61.0874 4.82 60.2624 3.995 59.1074 3.995C57.7874 3.995 56.7424 5.04 56.7424 6.525C56.7424 8.01 57.7874 9.055 59.1074 9.055C60.2624 9.055 61.0874 8.23 61.3074 7.185H60.2624ZM64.5026 3.995C63.6776 3.995 63.2376 4.545 63.2376 4.545L63.0176 4.05H62.3026V9H63.2926V6.195C63.2926 5.535 63.8426 4.985 64.5026 4.985C64.6676 4.985 64.8326 5.04 64.8326 5.04V4.05C64.8326 4.05 64.7226 3.995 64.5026 3.995ZM67.0829 8.835L66.9179 9.33C66.8079 9.66 66.5329 9.935 65.9829 9.935V10.76C65.9829 10.76 66.1479 10.815 66.3129 10.815C67.0829 10.815 67.4679 10.43 67.9079 9.33L69.9979 4.05H68.9529L67.5779 7.625L66.2029 4.05H65.1579L67.0829 8.835ZM73.1324 3.995C72.1424 3.995 71.7024 4.545 71.7024 4.545L71.4824 4.05H70.7674V10.76H71.7574V8.505C71.7574 8.505 72.1974 9.055 73.1324 9.055C74.4524 9.055 75.4974 8.01 75.4974 6.525C75.4974 5.04 74.4524 3.995 73.1324 3.995ZM73.0774 8.12C72.3074 8.12 71.6474 7.46 71.6474 6.525C71.6474 5.59 72.3074 4.93 73.0774 4.93C73.8474 4.93 74.5074 5.59 74.5074 6.525C74.5074 7.46 73.8474 8.12 73.0774 8.12ZM77.9767 4.985H79.0767V4.05H77.9767V2.73H77.1517V3.39C77.1517 3.775 76.8767 4.05 76.4917 4.05H76.1067V4.985H76.9867V7.35C76.9867 8.395 77.6467 9.055 78.5267 9.055C78.8567 9.055 79.0767 8.945 79.0767 8.945V8.065C79.0767 8.065 78.9117 8.12 78.7467 8.12C78.3067 8.12 77.9767 7.79 77.9767 7.35V4.985ZM81.2213 4.05H80.2313V9H81.2213V4.05ZM80.7263 3.28C81.0563 3.28 81.3313 3.005 81.3313 2.675C81.3313 2.345 81.0563 2.07 80.7263 2.07C80.3963 2.07 80.1213 2.345 80.1213 2.675C80.1213 3.005 80.3963 3.28 80.7263 3.28ZM86.0059 6.525C86.0059 7.46 85.3459 8.12 84.6309 8.12C83.9159 8.12 83.2559 7.46 83.2559 6.525C83.2559 5.59 83.9159 4.93 84.6309 4.93C85.3459 4.93 86.0059 5.59 86.0059 6.525ZM86.9959 6.525C86.9959 5.04 85.9509 3.995 84.6309 3.995C83.3109 3.995 82.2659 5.04 82.2659 6.525C82.2659 8.01 83.3109 9.055 84.6309 9.055C85.9509 9.055 86.9959 8.01 86.9959 6.525ZM90.4059 3.995C89.4159 3.995 88.9759 4.545 88.9759 4.545L88.7559 4.05H88.0409V9H89.0309V6.14C89.0309 5.48 89.5809 4.93 90.2409 4.93C90.8459 4.93 91.3959 5.48 91.3959 6.14V9H92.3859V6.14C92.3859 4.875 91.5059 3.995 90.4059 3.995Z" fill="white"/>
<path fill-rule="evenodd" clip-rule="evenodd" d="M9 2.44444C7.01178 2.44444 5.4 4.08607 5.4 6.11111V11H3V6.11111C3 2.73604 5.68629 0 9 0C12.3137 0 15 2.73604 15 6.11111V11H12.6V6.11111C12.6 4.08607 10.9882 2.44444 9 2.44444Z" fill="#2C955C"/>
<rect y="8" width="18" height="15" rx="2" fill="#339D5D"/>
<path d="M6 14.5L8.14645 16.6464C8.34171 16.8417 8.65829 16.8417 8.85355 16.6464L12.5 13" stroke="white" stroke-width="2" stroke-linecap="round"/>
</svg>
