<svg width="202" height="29" viewBox="0 0 202 29" fill="none" xmlns="http://www.w3.org/2000/svg">
<g clip-path="url(#clip0_702_133)">
<path d="M149.998 0.509033H158.503C159.34 0.509033 160.177 0.56892 161.029 0.688692C161.881 0.808465 162.628 1.04801 163.301 1.39236C163.974 1.75168 164.512 2.24574 164.945 2.88952C165.364 3.5333 165.573 4.37171 165.573 5.43469C165.573 6.49768 165.274 7.44089 164.661 8.15952C164.048 8.87816 163.241 9.38719 162.24 9.7016V9.76149C162.883 9.85131 163.451 10.031 163.974 10.3005C164.497 10.57 164.945 10.8993 165.304 11.3185C165.678 11.7228 165.962 12.2019 166.171 12.7558C166.365 13.2948 166.47 13.8787 166.47 14.5075C166.47 15.5256 166.246 16.3789 165.812 17.0676C165.379 17.7563 164.811 18.2953 164.123 18.7145C163.436 19.1337 162.658 19.4331 161.791 19.6128C160.924 19.7925 160.072 19.8823 159.22 19.8823H150.013V0.509033H149.998ZM154.258 8.24935H158.637C158.966 8.24935 159.295 8.20444 159.609 8.12958C159.923 8.05472 160.207 7.91998 160.461 7.74032C160.715 7.56066 160.924 7.32111 161.074 7.02168C161.223 6.72225 161.313 6.36293 161.313 5.94373C161.313 5.52452 161.223 5.13526 161.059 4.8508C160.895 4.56634 160.67 4.34176 160.386 4.17708C160.117 4.01239 159.803 3.90759 159.46 3.83273C159.116 3.75787 158.772 3.72793 158.443 3.72793H154.258V8.23438V8.24935ZM154.288 16.4388H159.25C159.564 16.4388 159.893 16.3939 160.222 16.3041C160.551 16.2142 160.85 16.0645 161.104 15.8549C161.373 15.6453 161.582 15.3609 161.747 15.0165C161.911 14.6722 162.001 14.253 162.001 13.7589C162.001 13.2199 161.896 12.7858 161.672 12.4414C161.448 12.0971 161.179 11.8575 160.835 11.6779C160.506 11.5132 160.132 11.3934 159.758 11.3185C159.37 11.2586 159.011 11.2287 158.667 11.2287H154.288V16.4388Z" fill="#2CAE79"/>
<path d="M0 0.509033H8.40047C9.22258 0.509033 10.0596 0.56892 10.8967 0.688692C11.7338 0.808465 12.4811 1.03304 13.1538 1.39236C13.8115 1.7367 14.3645 2.23077 14.7681 2.85958C15.1866 3.48838 15.3959 4.32679 15.3959 5.3748C15.3959 6.42282 15.0969 7.35106 14.499 8.06969C13.9011 8.78833 13.094 9.29737 12.1074 9.5968V9.65668C12.7352 9.74651 13.3032 9.92617 13.8264 10.1807C14.3346 10.4352 14.783 10.7796 15.1418 11.1838C15.5155 11.588 15.7995 12.0671 15.9938 12.6061C16.1881 13.1451 16.2927 13.729 16.2927 14.3278C16.2927 15.3309 16.0835 16.1843 15.65 16.858C15.2165 17.5317 14.6635 18.0857 13.9759 18.4899C13.2883 18.9091 12.526 19.2086 11.674 19.3882C10.822 19.5679 9.96996 19.6577 9.1329 19.6577H0V0.509033ZM4.21518 8.15952H8.54995C8.87879 8.15952 9.19269 8.11461 9.50659 8.03975C9.82048 7.96489 10.1045 7.83015 10.3586 7.65049C10.6127 7.47083 10.807 7.23128 10.9714 6.94682C11.1209 6.64739 11.1956 6.30304 11.1956 5.88384C11.1956 5.46463 11.106 5.09034 10.9415 4.80588C10.7771 4.52142 10.5529 4.29685 10.2839 4.14713C10.0148 3.98245 9.7009 3.87764 9.37206 3.80279C9.02827 3.72793 8.69942 3.69799 8.37058 3.69799H4.21518V8.15952ZM4.24508 16.2592H9.14785C9.46174 16.2592 9.77564 16.2142 10.1045 16.1244C10.4333 16.0346 10.7173 15.8849 10.9864 15.6753C11.2405 15.4657 11.4647 15.1812 11.6291 14.8369C11.7935 14.4925 11.8832 14.0733 11.8832 13.5942C11.8832 13.0552 11.7786 12.6211 11.5544 12.2917C11.3302 11.9623 11.0611 11.7078 10.7323 11.5431C10.4034 11.3784 10.0447 11.2586 9.65606 11.1838C9.26743 11.1239 8.90869 11.094 8.57984 11.094H4.24508V16.2442V16.2592Z" fill="white"/>
<path d="M185.528 0.509033H194.033C194.87 0.509033 195.707 0.56892 196.559 0.688692C197.411 0.808465 198.159 1.04801 198.831 1.39236C199.504 1.75168 200.042 2.24574 200.475 2.88952C200.894 3.5333 201.103 4.37171 201.103 5.43469C201.103 6.49768 200.804 7.44089 200.191 8.15952C199.579 8.87816 198.771 9.38719 197.77 9.7016V9.76149C198.413 9.85131 198.981 10.031 199.504 10.3005C200.027 10.57 200.475 10.8993 200.834 11.3185C201.208 11.7228 201.492 12.2019 201.701 12.7558C201.895 13.2948 202 13.8787 202 14.5075C202 15.5256 201.776 16.3789 201.342 17.0676C200.909 17.7563 200.341 18.2953 199.653 18.7145C198.966 19.1337 198.188 19.4331 197.321 19.6128C196.455 19.7925 195.603 19.8823 194.751 19.8823H185.543V0.509033H185.528ZM189.788 8.24935H194.168C194.496 8.24935 194.825 8.20444 195.139 8.12958C195.453 8.05472 195.737 7.91998 195.991 7.74032C196.245 7.56066 196.455 7.32111 196.604 7.02168C196.753 6.72225 196.843 6.36293 196.843 5.94373C196.843 5.52452 196.753 5.13526 196.589 4.8508C196.425 4.56634 196.2 4.34176 195.916 4.17708C195.647 4.01239 195.333 3.90759 194.99 3.83273C194.646 3.75787 194.302 3.72793 193.973 3.72793H189.788V8.23438V8.24935ZM189.818 16.4388H194.78C195.094 16.4388 195.423 16.3939 195.752 16.3041C196.081 16.2142 196.38 16.0645 196.634 15.8549C196.903 15.6453 197.112 15.3609 197.277 15.0165C197.441 14.6722 197.531 14.253 197.531 13.7589C197.531 13.2199 197.426 12.7858 197.202 12.4414C196.978 12.0971 196.709 11.8575 196.365 11.6779C196.036 11.5132 195.662 11.3934 195.289 11.3185C194.9 11.2586 194.541 11.2287 194.197 11.2287H189.818V16.4388Z" fill="#2CAE79"/>
<path d="M168.712 15.4806L176.29 8.66848C176.679 8.32413 177.068 7.9199 177.441 7.48572C177.83 7.03657 178.024 6.52754 178.024 5.94365C178.024 5.2849 177.785 4.76089 177.307 4.3866C176.829 4.01231 176.275 3.81768 175.633 3.81768C174.855 3.81768 174.258 4.05723 173.824 4.53632C173.391 5.01541 173.151 5.5993 173.092 6.30297L168.966 6.00353C169.026 4.98547 169.235 4.11711 169.594 3.36853C169.953 2.61995 170.446 2.00612 171.059 1.51205C171.657 1.01799 172.374 0.6437 173.196 0.389183C174.018 0.134665 174.9 0.0148926 175.857 0.0148926C176.739 0.0148926 177.561 0.134665 178.338 0.389183C179.115 0.6437 179.773 1.00302 180.341 1.49708C180.909 1.99114 181.358 2.59001 181.671 3.33859C181.985 4.0722 182.15 4.92558 182.15 5.89873C182.15 6.52754 182.09 7.09646 181.955 7.59052C181.821 8.09956 181.642 8.54871 181.417 8.96791C181.193 9.38712 180.924 9.76141 180.61 10.1058C180.296 10.4501 179.953 10.7944 179.594 11.1238L173.675 16.2291H182.329V19.8672H168.727V15.4806H168.712Z" fill="#2CAE79"/>
<path d="M36.2177 5.03042C35.7692 4.29681 35.2311 3.63806 34.6183 3.05417L32.3463 5.47957L26.6662 11.5431L23.5871 8.71344L21.883 10.5699L26.7858 15.0764L33.7962 7.60554C34.1549 8.41401 34.3492 9.3123 34.3492 10.2555C34.3492 13.9385 31.3597 16.9328 27.6827 16.9328C24.0056 16.9328 21.0161 13.9385 21.0161 10.2555C21.0161 6.5725 23.886 3.71292 27.4584 3.59315C27.5332 3.59315 27.6079 3.59315 27.6827 3.59315C28.6393 3.59315 29.5511 3.80275 30.3732 4.17704L32.7349 1.66181C31.9726 1.21266 31.1355 0.853345 30.2536 0.628771C29.4315 0.404197 28.5646 0.284424 27.6677 0.284424C22.167 0.284424 17.6978 4.77591 17.6978 10.2705C17.6978 15.7651 22.182 20.2565 27.6677 20.2565C33.1534 20.2565 37.6377 15.78 37.6377 10.2705C37.6377 8.36909 37.0996 6.58747 36.1728 5.06037L36.2177 5.03042Z" fill="white"/>
<path d="M49.0425 0.539062H53.9752V0.883409L48.5194 10.1359L53.9752 19.3584V19.6129H48.9828L45.9634 14.4926L42.9739 19.6129H37.9216V19.4632L43.4073 10.1508L37.9216 0.778608V0.539062H42.9141L45.9634 5.74918L49.0425 0.539062Z" fill="white"/>
<path d="M70.3428 13.8337C70.3428 17.8162 66.9497 20.0619 62.884 20.0619C59.8646 20.0619 56.9797 18.8492 55.4551 16.1394L59.1172 13.5792C59.6703 14.6123 61.0454 15.6004 62.8541 15.6004C63.9153 15.6004 65.8735 15.4507 65.8735 13.9535C65.8735 12.4563 63.4221 12.2467 62.3309 12.0222C58.2503 11.1239 56.0231 9.05778 56.0231 6.19821C56.0231 2.50022 59.7898 0.284424 63.2278 0.284424C65.5596 0.284424 68.579 1.28752 69.9093 3.21886L66.3368 5.95866C66.1126 5.61432 64.7225 4.74596 63.168 4.74596C62.4505 4.74596 60.4924 4.97054 60.4924 5.98861C60.4924 6.73719 61.5536 7.36599 63.0783 7.60554C67.8017 8.41401 70.3577 10.3753 70.3577 13.8337H70.3428Z" fill="white"/>
<path d="M71.8674 0.568848H86.7103V4.98547H81.4488V19.5978H77.0393V4.98547H71.8674V0.568848Z" fill="white"/>
<path d="M107.009 10.1508C107.009 15.6304 102.659 20.077 97.3231 20.077C91.9868 20.077 87.667 15.6304 87.667 10.1508C87.667 4.67118 92.0167 0.269531 97.3231 0.269531C102.629 0.269531 107.009 4.7161 107.009 10.1508ZM102.36 10.1508C102.36 7.17144 100.103 4.73107 97.338 4.73107C94.5727 4.73107 92.3455 7.17144 92.3455 10.1508C92.3455 13.1301 94.6026 15.6005 97.338 15.6005C100.073 15.6005 102.36 13.1601 102.36 10.1508Z" fill="white"/>
<path d="M122.734 14.1782L126.68 16.6336C124.811 18.8494 122.136 20.122 119.266 20.122C113.885 20.122 109.52 15.6305 109.52 10.1509C109.52 4.67126 113.9 0.209717 119.281 0.209717C121.986 0.209717 124.572 1.36253 126.411 3.35375L122.614 6.00373C121.837 5.13538 120.656 4.65628 119.281 4.65628C116.486 4.65628 114.214 7.1266 114.214 10.1509C114.214 13.1751 116.486 15.6454 119.281 15.6454C120.716 15.6454 121.837 15.2113 122.734 14.1782Z" fill="white"/>
<path d="M146.186 0.539062L137.681 9.537L146.081 19.5979H140.446L134.168 12.0672V19.5979H129.759V0.539062H134.168V7.1116L140.117 0.539062H146.186Z" fill="white"/>
<path d="M21.4796 28.9102H20.5229L19.2673 25.0625H20.1343L20.9863 27.7724L21.8532 25.0625H22.7202L21.4497 28.9102H21.4796Z" fill="white"/>
<path d="M24.0057 27.368V28.1915H26.1731V28.8951H23.1836V25.0325H25.9937V25.7361H24.0057V26.6045H25.7546V27.3531H24.0057V27.368Z" fill="white"/>
<path d="M29.1626 27.4879L30.2388 28.9252H29.2075L28.2359 27.5328H27.8173V28.9252H26.9653V25.0625H28.6992C29.6708 25.0625 30.0445 25.6763 30.0445 26.3051C30.0445 26.8291 29.7755 27.3532 29.1327 27.4879H29.1626ZM27.8173 25.7213V26.889H28.475C28.8786 26.889 29.2075 26.7992 29.2075 26.3051C29.2075 25.8111 28.8786 25.7213 28.475 25.7213H27.8173Z" fill="white"/>
<path d="M31.0608 25.0625H31.9128V28.9102H31.0608V25.0625Z" fill="white"/>
<path d="M33.5721 28.1914V28.91H32.75V25.0474H35.5601V25.751H33.5721V26.6194H35.321V27.368H33.5721V28.1914Z" fill="white"/>
<path d="M36.2476 25.0625H37.0996V28.9102H36.2476V25.0625Z" fill="white"/>
<path d="M38.7738 27.368V28.1915H40.9412V28.8951H37.9517V25.0325H40.7618V25.7361H38.7738V26.6045H40.5226V27.3531H38.7738V27.368Z" fill="white"/>
<path d="M41.7334 25.0625H43.3926C44.394 25.0625 45.1414 25.6913 45.1414 26.9639C45.1414 28.0868 44.5734 28.9102 43.3926 28.9102H41.7334V25.0625ZM42.5854 28.2065H43.3328C43.826 28.2065 44.2894 27.9071 44.2894 27.0537C44.2894 26.2752 44.0204 25.7811 43.1833 25.7811H42.5854V28.2065Z" fill="white"/>
<path d="M48.3402 27.7573C48.4299 28.2663 48.8783 28.3262 49.1922 28.3262C49.4912 28.3262 49.9396 28.2364 49.9396 27.8471C49.9396 27.0237 47.6526 27.5627 47.6526 26.1104C47.6526 25.3169 48.4 24.9426 49.0876 24.9426C49.8948 24.9426 50.6272 25.287 50.6272 26.1853L49.8051 26.0655C49.7004 25.6163 49.3118 25.6014 49.0428 25.6014C48.7737 25.6014 48.4598 25.7211 48.4598 26.0356C48.4598 26.32 48.6392 26.3799 49.6108 26.6194C49.8948 26.6943 50.7468 26.874 50.7468 27.7423C50.7468 28.446 50.1937 28.97 49.1474 28.97C48.2804 28.97 47.5032 28.5508 47.5032 27.6076L48.3253 27.7423L48.3402 27.7573Z" fill="white"/>
<path d="M52.1218 26.2451V28.91H51.3894V25.0474H52.361L54.0799 27.4578V25.0474H54.7974V28.91H54.0799L52.1368 26.2451H52.1218Z" fill="white"/>
<path d="M56.367 27.368V28.1915H58.5344V28.8951H55.5449V25.0325H58.355V25.7361H56.367V26.6045H58.1159V27.3531H56.367V27.368Z" fill="white"/>
<path d="M58.9827 28.9102L60.7315 25.0625H61.5835L63.3025 28.9102H62.4804L62.1067 28.0568H60.1635L59.7599 28.9102H58.9976H58.9827ZM61.165 25.7811L60.5223 27.2633H61.7928L61.165 25.7811Z" fill="white"/>
<path d="M67.2786 28.91H66.1127L65.1112 27.8321L64.6179 28.5208V28.91H63.751V25.0474H64.6179V27.2332L66.1127 25.0474H67.159L65.7091 27.2332L67.2636 28.91H67.2786Z" fill="white"/>
<path d="M68.6986 27.368V28.1915H70.866V28.8951H67.8765V25.0325H70.6866V25.7361H68.6986V26.6045H70.4474V27.3531H68.6986V27.368Z" fill="white"/>
<path d="M73.8555 27.4879L74.9317 28.9252H73.9003L72.9287 27.5328H72.5102V28.9252H71.6582V25.0625H73.3921C74.3637 25.0625 74.7374 25.6763 74.7374 26.3051C74.7374 26.8291 74.4683 27.3532 73.8256 27.4879H73.8555ZM72.5102 25.7213V26.889H73.1679C73.5715 26.889 73.9003 26.7992 73.9003 26.3051C73.9003 25.8111 73.5715 25.7213 73.1679 25.7213H72.5102Z" fill="white"/>
<path d="M76.3368 27.7573C76.4265 28.2663 76.8749 28.3262 77.1888 28.3262C77.4878 28.3262 77.9362 28.2364 77.9362 27.8471C77.9362 27.0237 75.6492 27.5627 75.6492 26.1104C75.6492 25.3169 76.3966 24.9426 77.0842 24.9426C77.8914 24.9426 78.6238 25.287 78.6238 26.1853L77.8017 26.0655C77.697 25.6163 77.3084 25.6014 77.0393 25.6014C76.7703 25.6014 76.4564 25.7211 76.4564 26.0356C76.4564 26.32 76.6358 26.3799 77.6073 26.6194C77.8913 26.6943 78.7434 26.874 78.7434 27.7423C78.7434 28.446 78.1903 28.97 77.144 28.97C76.277 28.97 75.4998 28.5508 75.4998 27.6076L76.3219 27.7423L76.3368 27.7573Z" fill="white"/>
<path d="M84.3785 28.431L83.9301 28.9999C83.7059 28.8951 83.4966 28.7454 83.3023 28.5658C83.1528 28.7005 82.9884 28.8053 82.8091 28.8802C82.6297 28.955 82.4204 28.985 82.1813 28.985C81.7029 28.985 81.3442 28.8502 81.105 28.5807C80.9107 28.3711 80.821 28.1316 80.821 27.8621C80.821 27.6076 80.8958 27.398 81.0453 27.1884C81.1947 26.9937 81.4189 26.8141 81.7029 26.6793C81.5684 26.5147 81.4787 26.3799 81.404 26.2302C81.3442 26.0954 81.2994 25.9607 81.2994 25.826C81.2994 25.5864 81.3891 25.3918 81.5834 25.2271C81.7627 25.0624 82.0318 24.9875 82.3756 24.9875C82.7194 24.9875 82.9735 25.0774 83.1529 25.2421C83.3322 25.4068 83.4369 25.6164 83.4369 25.8709C83.4369 26.0356 83.392 26.1853 83.3023 26.32C83.2126 26.4548 83.0183 26.6195 82.7343 26.7991L83.2724 27.5028C83.3322 27.383 83.392 27.2483 83.4369 27.0686L84.1095 27.2183C84.0497 27.4579 83.9899 27.6375 83.9301 27.7423C83.8853 27.8471 83.8255 27.937 83.7657 28.0118C83.8404 28.0867 83.96 28.1765 84.0796 28.2663C84.2141 28.3562 84.3038 28.416 84.3636 28.446L84.3785 28.431ZM82.0766 27.1285C81.9122 27.2183 81.7777 27.3231 81.7029 27.4429C81.6133 27.5627 81.5834 27.6824 81.5834 27.8172C81.5834 27.9819 81.6432 28.1016 81.7478 28.2064C81.8524 28.3112 81.9869 28.3562 82.1663 28.3562C82.2859 28.3562 82.3905 28.3412 82.4952 28.2963C82.5998 28.2514 82.7194 28.1765 82.8389 28.0717L82.0916 27.1435L82.0766 27.1285ZM82.3606 26.32L82.555 26.1703C82.7044 26.0505 82.7792 25.9457 82.7792 25.826C82.7792 25.7361 82.7493 25.6463 82.6745 25.5864C82.5998 25.5265 82.5101 25.4816 82.3905 25.4816C82.2709 25.4816 82.1813 25.5116 82.1215 25.5714C82.0617 25.6313 82.0168 25.7062 82.0168 25.781C82.0168 25.8709 82.0766 25.9757 82.1813 26.1104L82.3606 26.32Z" fill="white"/>
<path d="M86.8449 27.7573C86.9346 28.2663 87.383 28.3262 87.6969 28.3262C87.9958 28.3262 88.4442 28.2364 88.4442 27.8471C88.4442 27.0237 86.1573 27.5627 86.1573 26.1104C86.1573 25.3169 86.9047 24.9426 87.5922 24.9426C88.3994 24.9426 89.1318 25.287 89.1318 26.1853L88.3097 26.0655C88.2051 25.6163 87.8165 25.6014 87.5474 25.6014C87.2783 25.6014 86.9644 25.7211 86.9644 26.0356C86.9644 26.32 87.1438 26.3799 88.1154 26.6194C88.3994 26.6943 89.2514 26.874 89.2514 27.7423C89.2514 28.446 88.6984 28.97 87.652 28.97C86.7851 28.97 86.0078 28.5508 86.0078 27.6076L86.8299 27.7423L86.8449 27.7573Z" fill="white"/>
<path d="M90.9405 25.7662H89.7148V25.0625H92.9883V25.7811H91.7776V28.9102H90.9256V25.7662H90.9405Z" fill="white"/>
<path d="M95.8731 27.4879L96.9493 28.9252H95.9179L94.9463 27.5328H94.5278V28.9252H93.6758V25.0625H95.4097C96.3813 25.0625 96.755 25.6763 96.755 26.3051C96.755 26.8291 96.4859 27.3532 95.8432 27.4879H95.8731ZM94.5278 25.7213V26.889H95.1855C95.5891 26.889 95.9179 26.7992 95.9179 26.3051C95.9179 25.8111 95.5891 25.7213 95.1855 25.7213H94.5278Z" fill="white"/>
<path d="M98.5038 27.368V28.1915H100.671V28.8951H97.6816V25.0325H100.492V25.7361H98.5038V26.6045H100.253V27.3531H98.5038V27.368Z" fill="white"/>
<path d="M102.181 27.368V28.1915H104.348V28.8951H101.359V25.0325H104.169V25.7361H102.181V26.6045H103.93V27.3531H102.181V27.368Z" fill="white"/>
<path d="M106.127 25.7662H104.901V25.0625H108.175V25.7811H106.964V28.9102H106.112V25.7662H106.127Z" fill="white"/>
<path d="M112.54 28.9102H111.703L111.045 26.2902L110.402 28.9102H109.55L108.534 25.0625H109.386L109.924 27.6975H109.999L110.671 25.0625H111.463L112.121 27.7125H112.196L112.764 25.0625H113.586L112.555 28.9102H112.54Z" fill="white"/>
<path d="M114.886 27.368V28.1915H117.054V28.8951H114.064V25.0325H116.874V25.7361H114.886V26.6045H116.635V27.3531H114.886V27.368Z" fill="white"/>
<path d="M117.487 28.9102L119.236 25.0625H120.088L121.807 28.9102H120.985L120.611 28.0568H118.668L118.264 28.9102H117.502H117.487ZM119.669 25.7811L119.027 27.2633H120.297L119.669 25.7811Z" fill="white"/>
<path d="M124.587 27.4879L125.663 28.9252H124.632L123.66 27.5328H123.242V28.9252H122.39V25.0625H124.124C125.095 25.0625 125.469 25.6763 125.469 26.3051C125.469 26.8291 125.2 27.3532 124.557 27.4879H124.587ZM123.242 25.7213V26.889H123.9C124.303 26.889 124.632 26.7992 124.632 26.3051C124.632 25.8111 124.303 25.7213 123.9 25.7213H123.242Z" fill="white"/>
</g>
<defs>
<clipPath id="clip0_702_133">
<rect width="202" height="29" fill="white"/>
</clipPath>
</defs>
</svg>
