<svg width="84" height="12" viewBox="0 0 84 12" fill="none" xmlns="http://www.w3.org/2000/svg">
<path d="M5.44 7.48H7.68C7.44 8.12 6.72 8.84 5.44 8.84C4 8.84 2.8 7.64 2.8 5.96C2.8 4.28 4 3.08 5.44 3.08C6.64 3.08 7.36 3.8 7.6 4.52L10 4.36C9.52 2.52 7.84 0.839999 5.44 0.839999C2.72 0.839999 0.48 3.08 0.48 5.96C0.48 8.84 2.72 11.08 5.44 11.08C7.2 11.08 8.32 10.04 8.32 10.04L8.72 11H10.32V5.56H5.44V7.48ZM16.485 8.68C16.485 8.68 16.165 9.16 15.365 9.16C14.565 9.16 14.005 8.6 13.845 8.04H18.885C18.885 8.04 18.965 7.64 18.965 7.32C18.965 5 17.365 3.48 15.365 3.48C13.285 3.48 11.605 5.16 11.605 7.32C11.605 9.48 13.285 11.16 15.285 11.16C17.205 11.16 18.325 10.04 18.725 8.84L16.485 8.68ZM15.365 5.48C16.165 5.48 16.725 6.04 16.885 6.68H13.845C14.005 6.04 14.565 5.48 15.365 5.48ZM19.2812 3.64L22.0813 11H24.3213L27.1213 3.64H24.8013L23.2013 8.44L21.6013 3.64H19.2812ZM32.485 8.68C32.485 8.68 32.165 9.16 31.365 9.16C30.565 9.16 30.005 8.6 29.845 8.04H34.885C34.885 8.04 34.965 7.64 34.965 7.32C34.965 5 33.365 3.48 31.365 3.48C29.285 3.48 27.605 5.16 27.605 7.32C27.605 9.48 29.285 11.16 31.285 11.16C33.205 11.16 34.325 10.04 34.725 8.84L32.485 8.68ZM31.365 5.48C32.165 5.48 32.725 6.04 32.885 6.68H29.845C30.005 6.04 30.565 5.48 31.365 5.48ZM39.8394 3.56C38.7194 3.56 38.0794 4.44 38.0794 4.44L37.7594 3.64H36.1594V11H38.3194V7.24C38.3194 6.28 38.8794 5.72 39.6794 5.72C40.1594 5.72 40.4794 5.88 40.4794 5.88V3.64C40.4794 3.64 40.2394 3.56 39.8394 3.56ZM43.8369 3.64H41.6769V11H43.8369V3.64ZM41.5969 1.64C41.5969 2.28 42.1569 2.84 42.7969 2.84C43.4369 2.84 43.9969 2.28 43.9969 1.64C43.9969 1 43.4369 0.44 42.7969 0.44C42.1569 0.44 41.5969 1 41.5969 1.64ZM52.6369 3.96H48.2369V3.88C48.2369 3.24 48.6369 2.84 49.1969 2.84C49.5169 2.84 49.7569 2.92 49.7569 2.92V1C49.7569 1 49.3249 0.839999 48.7169 0.839999C47.0369 0.839999 46.0769 1.8 46.0769 3.56V3.96H45.1169V5.96H46.0769V11H48.2369V5.96H50.4769V11H52.6369V3.96ZM50.3969 2.04C50.3969 2.68 50.9569 3.24 51.5969 3.24C52.2369 3.24 52.7969 2.68 52.7969 2.04C52.7969 1.4 52.2369 0.839999 51.5969 0.839999C50.9569 0.839999 50.3969 1.4 50.3969 2.04ZM58.9538 8.68C58.9538 8.68 58.6338 9.16 57.8338 9.16C57.0338 9.16 56.4738 8.6 56.3138 8.04H61.3538C61.3538 8.04 61.4338 7.64 61.4338 7.32C61.4338 5 59.8338 3.48 57.8338 3.48C55.7538 3.48 54.0738 5.16 54.0738 7.32C54.0738 9.48 55.7538 11.16 57.7538 11.16C59.6738 11.16 60.7938 10.04 61.1938 8.84L58.9538 8.68ZM57.8338 5.48C58.6338 5.48 59.1938 6.04 59.3538 6.68H56.3138C56.4738 6.04 57.0338 5.48 57.8338 5.48ZM67.1881 8.68C67.1881 8.68 66.8681 9.16 66.0681 9.16C65.2681 9.16 64.7081 8.6 64.5481 8.04H69.5881C69.5881 8.04 69.6681 7.64 69.6681 7.32C69.6681 5 68.0681 3.48 66.0681 3.48C63.9881 3.48 62.3081 5.16 62.3081 7.32C62.3081 9.48 63.9881 11.16 65.9881 11.16C67.9081 11.16 69.0281 10.04 69.4281 8.84L67.1881 8.68ZM66.0681 5.48C66.8681 5.48 67.4281 6.04 67.5881 6.68H64.5481C64.7081 6.04 65.2681 5.48 66.0681 5.48ZM74.5425 3.56C73.4225 3.56 72.7825 4.44 72.7825 4.44L72.4625 3.64H70.8625V11H73.0225V7.24C73.0225 6.28 73.5825 5.72 74.3825 5.72C74.8625 5.72 75.1825 5.88 75.1825 5.88V3.64C75.1825 3.64 74.9425 3.56 74.5425 3.56ZM79.3419 11.08C80.6219 11.08 81.4219 10.28 81.4219 10.28L81.7419 11H83.3419V0.919999H81.1819V4.2C81.1819 4.2 80.4619 3.56 79.3419 3.56C77.5019 3.56 75.9019 5.16 75.9019 7.32C75.9019 9.48 77.5019 11.08 79.3419 11.08ZM78.0619 7.32C78.0619 6.28 78.7819 5.56 79.6619 5.56C80.5419 5.56 81.2619 6.28 81.2619 7.32C81.2619 8.36 80.5419 9.08 79.6619 9.08C78.7819 9.08 78.0619 8.36 78.0619 7.32Z" fill="black"/>
</svg>
