<svg width="24" height="28" viewBox="0 0 24 28" fill="none" xmlns="http://www.w3.org/2000/svg">
<rect x="0.75" y="0.75" width="19.246" height="26.5" rx="1.25" stroke="black" stroke-width="1.5"/>
<rect x="17" y="5" width="7" height="19" fill="white"/>
<path fill-rule="evenodd" clip-rule="evenodd" d="M21.729 13.7926L16.2464 8.28892C16.2122 8.25118 16.1704 8.22103 16.1238 8.2004C16.0772 8.17976 16.0268 8.1691 15.9758 8.1691C15.9249 8.1691 15.8745 8.17976 15.8279 8.2004C15.7813 8.22103 15.7395 8.25118 15.7052 8.28892L15.1148 8.87232C15.0405 8.94442 14.9975 9.04291 14.9953 9.14645C14.9962 9.19673 15.0072 9.24632 15.0277 9.29222C15.0483 9.33812 15.0779 9.37939 15.1148 9.41355L18.9385 13.2443L9.52681 13.2443C9.42525 13.2428 9.32703 13.2805 9.25268 13.3497C9.21745 13.3859 9.18993 13.4288 9.17181 13.476C9.15369 13.5231 9.14533 13.5734 9.14725 13.6239L9.14725 14.4954C9.14571 14.597 9.18349 14.6952 9.25268 14.7696C9.32703 14.8388 9.42525 14.8765 9.52681 14.875L18.9385 14.875L15.1148 18.6636C15.0771 18.6979 15.0469 18.7396 15.0263 18.7862C15.0056 18.8328 14.995 18.8832 14.995 18.9342C14.995 18.9852 15.0056 19.0356 15.0263 19.0822C15.0469 19.1288 15.0771 19.1706 15.1148 19.2048L15.7052 19.7952C15.7395 19.833 15.7813 19.8631 15.8279 19.8838C15.8745 19.9044 15.9249 19.9151 15.9758 19.9151C16.0268 19.9151 16.0772 19.9044 16.1238 19.8838C16.1704 19.8631 16.2122 19.833 16.2464 19.7952L21.729 14.3127C21.7667 14.2784 21.7969 14.2367 21.8175 14.1901C21.8382 14.1435 21.8488 14.0931 21.8488 14.0421C21.8488 13.9911 21.8382 13.9407 21.8175 13.8941C21.7969 13.8475 21.7667 13.8057 21.729 13.7715L21.729 13.7926Z" fill="black"/>
</svg>
