<svg width="20" height="19" viewBox="0 0 20 19" fill="none" xmlns="http://www.w3.org/2000/svg">
<path d="M19.8093 4.91552L10.1541 0.0367532C10.1063 0.0125829 10.0535 0 10 0C9.9465 0 9.89372 0.0125829 9.84586 0.0367532L0.190695 4.91552C0.133373 4.94447 0.0851668 4.98899 0.0514842 5.04408C0.0178016 5.09917 -2.47214e-05 5.16266 5.13912e-06 5.22742V12.8196C-0.000346249 12.8847 0.0173286 12.9485 0.0510291 13.004C0.0847296 13.0594 0.13311 13.1042 0.190695 13.1333L9.84586 18.012C9.89372 18.0362 9.9465 18.0488 10 18.0488C10.0535 18.0488 10.1063 18.0362 10.1541 18.012L19.8093 13.1333C19.8669 13.1042 19.9153 13.0594 19.949 13.004C19.9827 12.9485 20.0003 12.8847 20 12.8196V5.22742C20 5.16266 19.9822 5.09917 19.9485 5.04408C19.9148 4.98899 19.8666 4.94447 19.8093 4.91552Z" fill="#2CAE79"/>
<path d="M19.0914 5.2489L10.1427 0.765707C10.0983 0.743496 10.0494 0.731934 9.99983 0.731934C9.95024 0.731934 9.90133 0.743496 9.85697 0.765707L0.908278 5.2489C0.855151 5.2755 0.810472 5.31641 0.779254 5.36703C0.748036 5.41766 0.731514 5.476 0.731542 5.53551V12.5121C0.731216 12.5719 0.747597 12.6306 0.778832 12.6815C0.810067 12.7325 0.854907 12.7736 0.908278 12.8003L9.85697 17.2835C9.90133 17.3057 9.95024 17.3173 9.99983 17.3173C10.0494 17.3173 10.0983 17.3057 10.1427 17.2835L19.0914 12.8003C19.1448 12.7736 19.1896 12.7325 19.2208 12.6815C19.2521 12.6306 19.2684 12.5719 19.2681 12.5121V5.53551C19.2681 5.476 19.2516 5.41766 19.2204 5.36703C19.1892 5.31641 19.1445 5.2755 19.0914 5.2489ZM9.99983 9.66068L7.50155 8.40891L15.487 4.15852L18.2355 5.53551L9.99983 9.66068ZM4.94478 7.128L12.9302 2.87761L14.7839 3.80627L6.79939 8.0573L4.94478 7.128ZM4.5667 7.65478L6.48427 8.61546V11.167L5.75144 10.4328C5.69152 10.3727 5.61024 10.3389 5.52548 10.3389H4.5667V7.65478ZM9.99983 1.41033L12.2281 2.52536L4.24262 6.77639L1.76575 5.53551L9.99983 1.41033ZM1.37073 6.05363L3.9275 7.33455V10.6592C3.9275 10.7441 3.96117 10.8255 4.02111 10.8856C4.08105 10.9456 4.16234 10.9794 4.2471 10.9794H5.39317L6.57791 12.1665C6.62261 12.2112 6.67955 12.2417 6.74154 12.2541C6.80352 12.2664 6.86777 12.2601 6.92616 12.2359C6.98455 12.2116 7.03446 12.1706 7.06958 12.1179C7.1047 12.0653 7.12345 12.0034 7.12346 11.9401V8.93569L9.68023 10.2166V16.4772L1.37073 12.3142V6.05363ZM10.3194 16.4772V10.2166L18.6289 6.05363V12.3142L10.3194 16.4772Z" fill="white"/>
</svg>
