<svg width="136" height="14" viewBox="0 0 136 14" fill="none" xmlns="http://www.w3.org/2000/svg">
<path d="M6.44 0.919999V8.52L1.4 0.919999H0.28V11H1.56V3.4L6.6 11H7.72V0.919999H6.44ZM11.24 3.8H10.04V11H11.24V3.8ZM9.88 1.768C9.88 2.2 10.2 2.52 10.632 2.52C11.08 2.52 11.4 2.2 11.4 1.768C11.4 1.32 11.08 1 10.632 1C10.2 1 9.88 1.32 9.88 1.768ZM17.8813 9.08C17.6413 9.4 17.0813 9.96 16.2013 9.96C15.1613 9.96 14.2013 9 14.1213 7.96H19.2413C19.2413 7.96 19.3213 7.72 19.3213 7.32C19.3213 5.16 17.8813 3.72 16.1213 3.72C14.3613 3.72 12.8413 5.24 12.8413 7.4C12.8413 9.56 14.3613 11.08 16.2013 11.08C17.7213 11.08 18.6813 10.12 19.1613 9.08H17.8813ZM16.1213 4.84C17.0813 4.84 17.8813 5.64 18.0413 6.92H14.1213C14.2812 5.72 15.1613 4.84 16.1213 4.84ZM23.715 11.08C25.075 11.08 25.795 10.2 25.795 10.2L26.115 11H26.995V3.8H25.795V7.96C25.795 9.16 24.995 9.96 23.875 9.96C22.915 9.96 22.115 9.16 22.115 7.96V3.8H20.915V7.96C20.915 9.8 22.195 11.08 23.715 11.08ZM33.1513 5.88L34.7513 11H35.7113L38.1113 3.8H36.8313L35.1513 8.92L33.5513 3.8H32.7513L31.1513 8.92L29.4713 3.8H28.1913L30.5913 11H31.5513L33.1513 5.88ZM47.3031 9.08C47.0631 9.4 46.5031 9.96 45.6231 9.96C44.5831 9.96 43.6231 9 43.5431 7.96H48.6631C48.6631 7.96 48.7431 7.72 48.7431 7.32C48.7431 5.16 47.3031 3.72 45.5431 3.72C43.7831 3.72 42.2631 5.24 42.2631 7.4C42.2631 9.56 43.7831 11.08 45.6231 11.08C47.1431 11.08 48.1031 10.12 48.5831 9.08H47.3031ZM45.5431 4.84C46.5031 4.84 47.3031 5.64 47.4631 6.92H43.5431C43.7031 5.72 44.5831 4.84 45.5431 4.84ZM53.6169 3.72C52.2569 3.72 51.5369 4.6 51.5369 4.6L51.2169 3.8H50.3369V11H51.5369V6.84C51.5369 5.64 52.3369 4.84 53.4569 4.84C54.4169 4.84 55.2169 5.64 55.2169 6.84V11H56.4169V6.84C56.4169 5 55.1369 3.72 53.6169 3.72ZM62.5725 7.4C62.5725 5.88 63.6125 4.84 64.7325 4.84C65.8525 4.84 66.8925 5.88 66.8925 7.4C66.8925 8.92 65.8525 9.96 64.7325 9.96C63.6125 9.96 62.5725 8.92 62.5725 7.4ZM68.0925 7.4C68.0925 5.24 66.5725 3.72 64.7325 3.72C62.8925 3.72 61.3725 5.24 61.3725 7.4C61.3725 9.56 62.8925 11.08 64.7325 11.08C66.5725 11.08 68.0925 9.56 68.0925 7.4ZM72.9763 3.72C71.6163 3.72 70.8963 4.6 70.8963 4.6L70.5763 3.8H69.6963V11H70.8963V6.84C70.8963 5.64 71.6963 4.84 72.8163 4.84C73.7763 4.84 74.5763 5.64 74.5763 6.84V11H75.7763V6.84C75.7763 5 74.4963 3.72 72.9763 3.72ZM82.6544 10.76C82.6544 11.8 81.8544 12.6 80.6544 12.6C79.6144 12.6 79.1344 12.12 78.8944 11.56H77.6944C78.0144 12.76 78.9744 13.72 80.6544 13.72C82.5744 13.72 83.8544 12.44 83.8544 10.76V3.8H82.9744L82.6544 4.6C82.6544 4.6 82.0144 3.72 80.5744 3.72C78.7344 3.72 77.2944 5.16 77.2944 7.24C77.2944 9.32 78.7344 10.76 80.5744 10.76C82.0144 10.76 82.6544 9.8 82.6544 9.8V10.76ZM78.4944 7.24C78.4944 5.8 79.4544 4.84 80.6544 4.84C81.8544 4.84 82.8144 5.8 82.8144 7.24C82.8144 8.68 81.8544 9.64 80.6544 9.64C79.4544 9.64 78.4944 8.68 78.4944 7.24ZM90.4125 9.08C90.1725 9.4 89.6125 9.96 88.7325 9.96C87.6925 9.96 86.7325 9 86.6525 7.96H91.7725C91.7725 7.96 91.8525 7.72 91.8525 7.32C91.8525 5.16 90.4125 3.72 88.6525 3.72C86.8925 3.72 85.3725 5.24 85.3725 7.4C85.3725 9.56 86.8925 11.08 88.7325 11.08C90.2525 11.08 91.2125 10.12 91.6925 9.08H90.4125ZM88.6525 4.84C89.6125 4.84 90.4125 5.64 90.5725 6.92H86.6525C86.8125 5.72 87.6925 4.84 88.6525 4.84ZM98.6463 7.4C98.6463 8.92 97.6063 9.96 96.4062 9.96C95.2063 9.96 94.1663 8.92 94.1663 7.4C94.1663 5.88 95.2063 4.84 96.4062 4.84C97.6063 4.84 98.6463 5.88 98.6463 7.4ZM98.8063 11H99.6863V0.919999H98.4863V4.68C98.4863 4.68 97.7663 3.72 96.3263 3.72C94.4863 3.72 92.9663 5.24 92.9663 7.4C92.9663 9.56 94.4863 11.08 96.3263 11.08C97.7663 11.08 98.4863 10.2 98.4863 10.2L98.8063 11ZM105.293 3.72H105.133C103.773 3.72 103.053 4.6 103.053 4.6L102.733 3.8H101.853V11H103.053V6.92C103.053 5.72 103.853 4.92 104.973 4.92H105.293V3.72ZM109.291 3.72C107.691 3.72 106.731 4.68 106.571 5.88H107.851C108.011 5.24 108.411 4.84 109.291 4.84C110.171 4.84 110.811 5.48 110.811 6.2V6.6C107.211 6.6 106.251 7.56 106.251 8.92C106.251 10.12 107.211 11.08 108.651 11.08C110.091 11.08 110.811 10.2 110.811 10.2L111.131 11H112.011V6.2C112.011 4.84 110.891 3.72 109.291 3.72ZM108.651 9.96C107.931 9.96 107.451 9.48 107.451 9C107.451 8.2 107.931 7.72 110.811 7.72V8.28C110.811 9.08 109.931 9.96 108.651 9.96ZM118.889 10.76C118.889 11.8 118.089 12.6 116.889 12.6C115.849 12.6 115.369 12.12 115.129 11.56H113.929C114.249 12.76 115.209 13.72 116.889 13.72C118.809 13.72 120.089 12.44 120.089 10.76V3.8H119.209L118.889 4.6C118.889 4.6 118.249 3.72 116.809 3.72C114.969 3.72 113.529 5.16 113.529 7.24C113.529 9.32 114.969 10.76 116.809 10.76C118.249 10.76 118.889 9.8 118.889 9.8V10.76ZM114.729 7.24C114.729 5.8 115.689 4.84 116.889 4.84C118.089 4.84 119.049 5.8 119.049 7.24C119.049 8.68 118.089 9.64 116.889 9.64C115.689 9.64 114.729 8.68 114.729 7.24ZM126.647 9.08C126.407 9.4 125.847 9.96 124.967 9.96C123.927 9.96 122.967 9 122.887 7.96H128.007C128.007 7.96 128.087 7.72 128.087 7.32C128.087 5.16 126.647 3.72 124.887 3.72C123.127 3.72 121.607 5.24 121.607 7.4C121.607 9.56 123.127 11.08 124.967 11.08C126.487 11.08 127.447 10.12 127.927 9.08H126.647ZM124.887 4.84C125.847 4.84 126.647 5.64 126.807 6.92H122.887C123.047 5.72 123.927 4.84 124.887 4.84ZM132.961 3.72C131.601 3.72 130.881 4.6 130.881 4.6L130.561 3.8H129.681V11H130.881V6.84C130.881 5.64 131.681 4.84 132.801 4.84C133.761 4.84 134.561 5.64 134.561 6.84V11H135.761V6.84C135.761 5 134.481 3.72 132.961 3.72Z" fill="black"/>
</svg>
