<svg width="22" height="20" viewBox="0 0 22 20" fill="none" xmlns="http://www.w3.org/2000/svg">
<path d="M21.6676 5.41455L11.1676 0.16455C11.1155 0.13854 11.0581 0.125 10.9999 0.125C10.9418 0.125 10.8844 0.13854 10.8323 0.16455L0.33232 5.41455C0.269982 5.4457 0.217558 5.4936 0.180928 5.55289C0.144298 5.61217 0.124912 5.68049 0.124945 5.75017V13.9201C0.124562 13.9901 0.143784 14.0588 0.180433 14.1184C0.217082 14.1781 0.269696 14.2263 0.33232 14.2576L10.8323 19.5076C10.8844 19.5336 10.9418 19.5471 10.9999 19.5471C11.0581 19.5471 11.1155 19.5336 11.1676 19.5076L21.6676 14.2576C21.7302 14.2263 21.7828 14.1781 21.8195 14.1184C21.8561 14.0588 21.8753 13.9901 21.8749 13.9201V5.75017C21.875 5.68049 21.8556 5.61217 21.819 5.55289C21.7823 5.4936 21.7299 5.4457 21.6676 5.41455ZM10.9999 10.5809L8.06857 9.11505L17.4383 4.13768L20.6633 5.75017L10.9999 10.5809ZM5.06857 7.61505L14.4383 2.63768L16.6133 3.72518L7.24469 8.7033L5.06857 7.61505ZM4.62494 8.23193L6.87494 9.35693V12.3449L6.01507 11.4851C5.94476 11.4147 5.84939 11.3752 5.74994 11.3752H4.62494V8.23193ZM10.9999 0.919425L13.6144 2.22518L4.24469 7.2033L1.33844 5.75017L10.9999 0.919425ZM0.874945 6.35693L3.87494 7.85693V11.7502C3.87494 11.8496 3.91445 11.945 3.98478 12.0153C4.05511 12.0857 4.15049 12.1252 4.24994 12.1252H5.5947L6.98482 13.5153C7.03726 13.5677 7.10407 13.6034 7.17681 13.6179C7.24954 13.6324 7.32493 13.6249 7.39344 13.5966C7.46195 13.5682 7.52051 13.5201 7.56172 13.4585C7.60293 13.3968 7.62493 13.3243 7.62494 13.2502V9.73193L10.6249 11.2319V18.5633L0.874945 13.6883V6.35693ZM11.3749 18.5633V11.2319L21.1249 6.35693V13.6883L11.3749 18.5633Z" fill="black"/>
</svg>
