<svg width="26" height="20" viewBox="0 0 26 20" fill="none" xmlns="http://www.w3.org/2000/svg">
<path d="M21.0488 6.57348H19.4119L19.9051 0.910888C19.906 0.900631 19.9062 0.890525 19.9062 0.88042C19.9062 0.879556 19.9063 0.878744 19.9063 0.87788C19.9063 0.877728 19.9063 0.877627 19.9063 0.877474C19.9063 0.723353 19.8133 0.587512 19.6767 0.528453C19.6755 0.527946 19.6744 0.527336 19.6732 0.526829C19.6648 0.523274 19.656 0.520227 19.6471 0.517281C19.6438 0.516215 19.6407 0.514895 19.6374 0.513879C19.6302 0.511695 19.6228 0.509969 19.6154 0.508192C19.6102 0.506973 19.6052 0.5055 19.6 0.504485C19.5936 0.503215 19.5869 0.502403 19.5803 0.501438C19.5741 0.500524 19.568 0.499457 19.5617 0.498899C19.5607 0.498797 19.5597 0.498594 19.5586 0.498492C19.5519 0.497883 19.5453 0.497984 19.5387 0.49773C19.5342 0.497578 19.5298 0.49707 19.5254 0.49707H19.5206C19.5202 0.49707 19.5198 0.49707 19.5194 0.49707H11.731C11.5208 0.49707 11.3502 0.667696 11.3502 0.877931C11.3502 1.08766 11.5208 1.25879 11.731 1.25879H19.1102L18.3523 9.96146C18.3522 9.96212 18.3522 9.96278 18.3521 9.96344L18.1608 12.1593H4.92671L5.14807 9.87422H7.6679C7.87829 9.87422 8.04876 9.7037 8.04876 9.49336C8.04876 9.28302 7.87829 9.1125 7.6679 9.1125H5.22191L5.6893 4.28852H9.69976C9.91015 4.28852 10.0806 4.11799 10.0806 3.90766C10.0806 3.69732 9.91015 3.52679 9.69976 3.52679H5.76314L5.98292 1.25879H10.2076C10.4173 1.25879 10.5884 1.08766 10.5884 0.877931C10.5884 0.667696 10.4173 0.49707 10.2076 0.49707H5.63725C5.63705 0.49707 5.63689 0.497121 5.63669 0.497121C5.45779 0.49707 5.3026 0.623009 5.26507 0.797595C5.26482 0.798865 5.26436 0.800083 5.26411 0.801353C5.26218 0.810849 5.26091 0.820548 5.25964 0.830298C5.25928 0.833396 5.25862 0.836341 5.25832 0.839439C5.25827 0.840048 5.25811 0.840607 5.25806 0.841216L4.99786 3.52679H0.380861C0.170473 3.52679 0 3.69732 0 3.90766C0 4.11799 0.170473 4.28852 0.380861 4.28852H4.92402L4.45663 9.1125H3.09777C2.88738 9.1125 2.71691 9.28302 2.71691 9.49336C2.71691 9.7037 2.88738 9.87422 3.09777 9.87422H4.38285L4.12833 12.5007C4.12828 12.5011 4.12828 12.5015 4.12823 12.5019L3.73472 16.5633C3.73467 16.5638 3.73462 16.5643 3.73457 16.5647L3.73442 16.5662C3.73391 16.5714 3.73396 16.5766 3.73366 16.5819C3.7333 16.5889 3.73259 16.5958 3.73259 16.6029C3.73259 16.6032 3.73264 16.6035 3.73264 16.6038C3.73264 16.6136 3.73335 16.6233 3.73406 16.6329C3.73437 16.636 3.73426 16.6392 3.73462 16.6422C3.73564 16.6521 3.73731 16.6618 3.73909 16.6714C3.7396 16.6743 3.73985 16.6772 3.74041 16.68C3.74188 16.6873 3.74396 16.6943 3.74589 16.7015C3.74721 16.7065 3.74828 16.7116 3.7498 16.7166C3.75026 16.7179 3.75087 16.7193 3.75128 16.7207C3.76971 16.7774 3.80099 16.8282 3.84182 16.8698C3.84258 16.8705 3.84319 16.8714 3.84395 16.8721C3.84802 16.8762 3.85243 16.8798 3.8567 16.8837C3.88295 16.9078 3.91261 16.9282 3.94506 16.9442C3.95181 16.9475 3.95846 16.951 3.96537 16.9539C3.96745 16.9548 3.96969 16.9554 3.97182 16.9563C3.98137 16.9601 3.99097 16.9637 4.00087 16.9668C4.00178 16.9671 4.00264 16.9672 4.00356 16.9675C4.01483 16.9709 4.02621 16.9738 4.03784 16.9762C4.03936 16.9765 4.04093 16.9766 4.04241 16.9769C4.05348 16.979 4.0646 16.9808 4.07592 16.9819C4.07618 16.9819 4.07638 16.9819 4.07663 16.982C4.08913 16.9832 4.10152 16.9838 4.11381 16.9838C4.11396 16.9838 4.11416 16.9838 4.11436 16.9838H5.80985C5.99709 18.4033 7.21406 19.5027 8.68393 19.5027C10.1537 19.5027 11.3707 18.4033 11.5579 16.9838H17.6669C17.8541 18.4033 19.0711 19.5027 20.5409 19.5027C22.0107 19.5027 23.2277 18.4033 23.415 16.9838H25.1109C25.1112 16.9838 25.1115 16.9838 25.1117 16.9838C25.1244 16.9838 25.1369 16.9831 25.1493 16.9818C25.1515 16.9816 25.1537 16.9812 25.1559 16.9809C25.1658 16.9798 25.1757 16.9784 25.1853 16.9765C25.1895 16.9757 25.1935 16.9745 25.1976 16.9736C25.2051 16.9718 25.2126 16.97 25.2199 16.9678C25.2249 16.9664 25.2297 16.9646 25.2346 16.963C25.2408 16.9608 25.2471 16.9586 25.2532 16.9561C25.2585 16.954 25.2635 16.9517 25.2686 16.9494C25.2742 16.9469 25.2798 16.9442 25.2853 16.9414C25.2904 16.9388 25.2954 16.936 25.3004 16.9332C25.3056 16.9302 25.3108 16.927 25.3159 16.9238C25.3207 16.9207 25.3255 16.9176 25.33 16.9144C25.3352 16.9108 25.3401 16.9069 25.3452 16.9031C25.3493 16.8998 25.3536 16.8965 25.3576 16.8931C25.3628 16.8887 25.3678 16.884 25.3727 16.8793C25.3762 16.876 25.3798 16.8728 25.3832 16.8693C25.3884 16.8639 25.3935 16.8582 25.3985 16.8525C25.4012 16.8494 25.404 16.8464 25.4066 16.8433C25.4122 16.8364 25.4172 16.8292 25.4223 16.8221C25.424 16.8196 25.426 16.8173 25.4276 16.8147C25.4338 16.8054 25.4397 16.7959 25.4451 16.786C25.4455 16.7854 25.4459 16.7849 25.4461 16.7842C25.4519 16.7736 25.4571 16.7628 25.4619 16.7517C25.4632 16.7485 25.4642 16.7452 25.4655 16.742C25.4686 16.7341 25.4716 16.7262 25.4742 16.718C25.4759 16.7128 25.4771 16.7073 25.4786 16.702C25.4803 16.6956 25.482 16.6893 25.4835 16.6829C25.4847 16.6772 25.4855 16.6713 25.4865 16.6654C25.4874 16.6603 25.4885 16.6553 25.4891 16.65C25.5053 16.5206 25.8035 14.1279 25.9367 12.5807C25.9369 12.5792 25.9369 12.5777 25.9371 12.5762C25.9754 12.1302 26 11.7546 26 11.5247C26 8.79461 23.7789 6.57348 21.0488 6.57348ZM19.3455 7.3353H20.9037L20.7047 9.62026H19.1465L19.3455 7.3353ZM8.68403 18.7409C7.50504 18.7409 6.54588 17.7818 6.54588 16.6028C6.54588 15.4239 7.50509 14.4647 8.68403 14.4647C9.86298 14.4647 10.8221 15.4239 10.8221 16.6028C10.8221 17.7818 9.86298 18.7409 8.68403 18.7409ZM20.5409 18.7409C19.362 18.7409 18.4028 17.7818 18.4028 16.6028C18.4028 15.4239 19.362 14.4647 20.5409 14.4647C21.7199 14.4647 22.679 15.4239 22.679 16.6028C22.679 17.7818 21.7199 18.7409 20.5409 18.7409ZM24.7744 16.2218H23.4151C23.2279 14.8022 22.0109 13.7027 20.541 13.7027C19.0712 13.7027 17.8541 14.8023 17.667 16.2218H11.5581C11.3709 14.8022 10.1539 13.7027 8.68403 13.7027C7.21417 13.7027 5.99709 14.8023 5.80991 16.2218H4.53306L4.85293 12.9208H18.5098V12.921C18.51 12.921 18.5102 12.921 18.5104 12.921C18.5231 12.921 18.5358 12.9203 18.5483 12.919C18.5506 12.9188 18.5529 12.9183 18.5552 12.918C18.5652 12.9168 18.5751 12.9154 18.5848 12.9135C18.5891 12.9126 18.5932 12.9115 18.5973 12.9104C18.605 12.9086 18.6126 12.9068 18.62 12.9046C18.6251 12.9031 18.6299 12.9013 18.6348 12.8995C18.6412 12.8973 18.6476 12.8951 18.6538 12.8926C18.6591 12.8904 18.6643 12.8879 18.6694 12.8855C18.6751 12.8829 18.6807 12.8803 18.6862 12.8775C18.6913 12.8747 18.6964 12.8718 18.7015 12.8689C18.7068 12.8658 18.7119 12.8627 18.717 12.8595C18.722 12.8563 18.7266 12.8529 18.7313 12.8496C18.7364 12.846 18.7413 12.8423 18.7461 12.8385C18.7505 12.835 18.7548 12.8314 18.7591 12.8277C18.7639 12.8236 18.7686 12.8193 18.7732 12.8149C18.7771 12.8112 18.7809 12.8074 18.7847 12.8034C18.7892 12.7987 18.7937 12.7937 18.798 12.7887C18.8014 12.7848 18.8048 12.7808 18.808 12.7767C18.8122 12.7714 18.8163 12.7659 18.8202 12.7604C18.8232 12.7562 18.8261 12.7521 18.8289 12.7478C18.8327 12.7421 18.8362 12.7362 18.8396 12.7302C18.8422 12.7257 18.8448 12.7212 18.8472 12.7167C18.8504 12.7107 18.8531 12.7046 18.856 12.6984C18.8582 12.6935 18.8605 12.6887 18.8626 12.6836C18.8651 12.6776 18.8671 12.6715 18.8693 12.6653C18.8712 12.6599 18.8732 12.6545 18.8749 12.6489C18.8765 12.643 18.8779 12.6369 18.8794 12.6309C18.8809 12.6249 18.8825 12.6189 18.8837 12.6128C18.8849 12.6068 18.8856 12.6007 18.8865 12.5946C18.8874 12.5883 18.8885 12.5821 18.8891 12.5757C18.8892 12.5748 18.8894 12.5739 18.8894 12.573L19.0803 10.3818H21.0487C22.2156 10.3818 22.7419 10.9864 23.299 11.6265C23.7588 12.1547 24.272 12.744 25.1444 12.8878C25.0336 14.0593 24.8545 15.5633 24.7744 16.2218ZM25.2095 12.1246C24.6436 12.0092 24.2954 11.6113 23.8735 11.1266C23.346 10.5206 22.7019 9.78094 21.4672 9.64312L21.6643 7.3809C23.6836 7.67955 25.2383 9.42379 25.2383 11.5248C25.2383 11.6675 25.2276 11.8749 25.2095 12.1246Z" fill="black" stroke="black" stroke-width="0.3"/>
</svg>
