<svg width="27" height="27" viewBox="0 0 27 27" fill="none" xmlns="http://www.w3.org/2000/svg">
<path fill-rule="evenodd" clip-rule="evenodd" d="M21.6326 15.1201C22.8783 15.6736 23.9634 16.353 24.8583 17.1393C26.2193 18.3351 27 20.0646 27 21.8848V23.8359C27 25.5807 25.5807 27 23.8359 27H3.16406C1.4193 27 0 25.5807 0 23.8359V21.8848C0 20.0646 0.780716 18.3351 2.14172 17.1393C3.24358 16.1709 5.35378 14.7355 8.74608 13.9899C6.89214 12.5617 5.69531 10.3205 5.69531 7.80469C5.69531 3.50127 9.19659 0 13.5 0C17.8034 0 21.3047 3.50127 21.3047 7.80469C21.3047 12.1081 17.8034 15.6094 13.5 15.6094C7.70437 15.6094 4.59963 17.7873 3.53403 18.7238C2.62868 19.5193 2.10938 20.6713 2.10938 21.8848V23.8359C2.10938 24.4175 2.58254 24.8906 3.16406 24.8906H23.8359C24.4175 24.8906 24.8906 24.4175 24.8906 23.8359V21.8848C24.8906 20.6713 24.3713 19.5193 23.466 18.7238C22.7316 18.0784 21.8265 17.5146 20.7761 17.0478C20.2438 16.8111 20.004 16.188 20.2405 15.6557C20.477 15.1234 21.1001 14.8837 21.6326 15.1201ZM13.5 2.10938C10.3596 2.10938 7.80469 4.66431 7.80469 7.80469C7.80469 10.9451 10.3596 13.5 13.5 13.5C16.6404 13.5 19.1953 10.9451 19.1953 7.80469C19.1953 4.66431 16.6404 2.10938 13.5 2.10938Z" fill="black"/>
</svg>
