<svg width="41" height="41" viewBox="0 0 41 41" fill="none" xmlns="http://www.w3.org/2000/svg">
<path fill-rule="evenodd" clip-rule="evenodd" d="M26.4441 24.3033C27.0755 23.1978 27.4364 21.9177 27.4364 20.5534C27.4364 16.3725 24.048 12.9833 19.8681 12.9833C15.6882 12.9833 12.2998 16.3725 12.2998 20.5534C12.2998 24.7342 15.6882 28.1234 19.8681 28.1234C21.9642 28.1234 23.8613 27.2711 25.2318 25.894C25.2329 25.8949 25.234 25.8957 25.2351 25.8965L28.0842 28.0339C28.526 28.3653 29.1528 28.2758 29.4843 27.834C29.8157 27.3923 29.7262 26.7654 29.2844 26.434L26.4441 24.3033ZM19.8681 26.9598C16.3308 26.9598 13.4632 24.0915 13.4632 20.5534C13.4632 17.0152 16.3308 14.1469 19.8681 14.1469C23.4054 14.1469 26.273 17.0152 26.273 20.5534C26.273 24.0915 23.4054 26.9598 19.8681 26.9598Z" fill="black"/>
</svg>
