<svg width="50" height="50" viewBox="0 0 50 50" fill="none" xmlns="http://www.w3.org/2000/svg">
<rect width="50" height="50" rx="25" fill="black"/>
<path fill-rule="evenodd" clip-rule="evenodd" d="M34.1146 17.3281C34.1146 16.7758 33.6668 16.3281 33.1146 16.3281H22.6373C22.085 16.3281 21.6373 16.7758 21.6373 17.3281C21.6373 17.8804 22.085 18.3281 22.6373 18.3281H33.1146C33.6668 18.3281 34.1146 17.8804 34.1146 17.3281ZM34.1112 24.7012C34.1112 24.1489 33.6635 23.7012 33.1112 23.7012H11.9163C11.3641 23.7012 10.9163 24.1489 10.9163 24.7012C10.9163 25.2535 11.3641 25.7012 11.9163 25.7012H33.1112C33.6635 25.7012 34.1112 25.2535 34.1112 24.7012ZM33.1124 31.0742C33.6646 31.0742 34.1124 31.5219 34.1124 32.0742C34.1124 32.6265 33.6646 33.0742 33.1124 33.0742H16.9841C16.4318 33.0742 15.9841 32.6265 15.9841 32.0742C15.9841 31.5219 16.4318 31.0742 16.9841 31.0742H33.1124Z" fill="white"/>
</svg>
