<svg width="16" height="16" viewBox="0 0 16 16" fill="none" xmlns="http://www.w3.org/2000/svg">
<path d="M7.99997 9.34298C7.71322 9.34298 7.4265 9.23082 7.20788 9.00698L0.328227 1.95941C-0.109409 1.51109 -0.109409 0.78423 0.328227 0.336099C0.765686 -0.112033 1.4751 -0.112033 1.91277 0.336099L7.99997 6.57218L14.0872 0.336316C14.5249 -0.111815 15.2342 -0.111815 15.6716 0.336316C16.1095 0.784448 16.1095 1.51131 15.6716 1.95962L8.79207 9.00719C8.57334 9.23108 8.28662 9.34298 7.99997 9.34298Z" fill="black"/>
<path d="M8.00003 6.65702C8.28678 6.65702 8.5735 6.76918 8.79212 6.99302L15.6718 14.0406C16.1094 14.4889 16.1094 15.2158 15.6718 15.6639C15.2343 16.112 14.5249 16.112 14.0872 15.6639L8.00003 9.42782L1.91279 15.6637C1.47515 16.1118 0.765811 16.1118 0.328387 15.6637C-0.109461 15.2156 -0.109461 14.4887 0.328387 14.0404L7.20793 6.99281C7.42666 6.76892 7.71338 6.65702 8.00003 6.65702Z" fill="black"/>
</svg>
