<svg width="29" height="29" viewBox="0 0 29 29" fill="none" xmlns="http://www.w3.org/2000/svg">
<path d="M26.4512 3.45508H2.54883C1.14516 3.45508 0 4.59899 0 6.00391V22.9961C0 24.3962 1.14006 25.5449 2.54883 25.5449H26.4512C27.8513 25.5449 29 24.4049 29 22.9961V6.00391C29 4.60375 27.8599 3.45508 26.4512 3.45508ZM26.0992 5.1543L14.554 16.6995L2.90901 5.1543H26.0992ZM1.69922 22.6442V6.34766L9.8826 14.4609L1.69922 22.6442ZM2.90074 23.8457L11.0893 15.6572L13.9585 18.5018C14.2907 18.8311 14.8266 18.83 15.1574 18.4992L17.9551 15.7015L26.0993 23.8457H2.90074ZM27.3008 22.6442L19.1566 14.5L27.3008 6.35576V22.6442Z" fill="black"/>
</svg>
