<svg width="30" height="30" viewBox="0 0 30 30" fill="none" xmlns="http://www.w3.org/2000/svg">
<g clip-path="url(#clip0_52_750)">
<path d="M25.4405 0.762096C24.9473 0.534951 24.3663 0.62327 23.9628 0.98662L22.0478 2.68228L19.4424 0.351689C18.919 -0.11723 18.1265 -0.11723 17.6031 0.351689L14.9998 2.68007L12.3959 0.351689C11.8724 -0.11723 11.0799 -0.11723 10.5563 0.351689L7.95019 2.68228L6.03339 0.986689C5.4678 0.483961 4.60172 0.534951 4.09899 1.10054C3.87392 1.35376 3.75062 1.68144 3.75296 2.02023V27.4464C3.74848 28.2043 4.35919 28.8222 5.11701 28.8267C5.45586 28.8287 5.78354 28.7052 6.03684 28.4801L7.95184 26.7844L10.5573 29.115C11.0807 29.5839 11.8731 29.5839 12.3966 29.115L14.9998 26.7863L17.6035 29.1147C18.1271 29.5836 18.9196 29.5836 19.4432 29.1147L22.0493 26.7842L23.9661 28.4798C24.5316 28.9826 25.3977 28.9319 25.9005 28.3663C26.1258 28.113 26.2491 27.7852 26.2467 27.4462V2.02023C26.2535 1.47741 25.9365 0.982687 25.4405 0.762096ZM22.9607 25.7506C22.4372 25.2868 21.6492 25.2889 21.1282 25.7555L18.5229 28.086L15.9195 25.7576C15.396 25.2887 14.6035 25.2887 14.08 25.7576L11.4764 28.086L8.86995 25.7555C8.35093 25.289 7.56434 25.2868 7.04278 25.7505L5.13295 27.4457V23.7677L5.12605 2.02057L7.03898 3.71582C7.56248 4.17956 8.35045 4.17749 8.87146 3.71092L11.4768 1.3804L14.0801 3.70878C14.6036 4.1777 15.3962 4.1777 15.9197 3.70878L18.5233 1.3804L21.1297 3.71092C21.6487 4.17742 22.4353 4.17956 22.9569 3.71588L24.8667 2.02023V19.4986L24.8736 27.4458L22.9607 25.7506Z" fill="black"/>
<path d="M21.5408 14.0432H8.45952C8.07844 14.0432 7.76953 14.3521 7.76953 14.7332C7.76953 15.1143 8.07844 15.4232 8.45952 15.4232H21.5408C21.9219 15.4232 22.2308 15.1143 22.2308 14.7332C22.2308 14.3521 21.9218 14.0432 21.5408 14.0432Z" fill="black"/>
<path d="M15.3309 9.90326H8.45952C8.07844 9.90326 7.76953 10.2122 7.76953 10.5933C7.76953 10.9743 8.07844 11.2832 8.45952 11.2832H15.3309C15.712 11.2832 16.0209 10.9743 16.0209 10.5933C16.0209 10.2122 15.7119 9.90326 15.3309 9.90326Z" fill="black"/>
<path d="M21.5408 18.1832H8.45952C8.07844 18.1832 7.76953 18.4921 7.76953 18.8732C7.76953 19.2542 8.07844 19.5632 8.45952 19.5632H21.5408C21.9219 19.5632 22.2308 19.2542 22.2308 18.8732C22.2308 18.4921 21.9218 18.1832 21.5408 18.1832Z" fill="black"/>
</g>
<defs>
<clipPath id="clip0_52_750">
<rect width="29.4667" height="29.4667" fill="white" transform="translate(0.266602)"/>
</clipPath>
</defs>
</svg>
