<svg width="27" height="25" viewBox="0 0 27 25" fill="none" xmlns="http://www.w3.org/2000/svg">
<path d="M26.4179 6.55538L13.5416 0.0490144C13.4778 0.0167807 13.4074 0 13.3361 0C13.2647 0 13.1944 0.0167807 13.1305 0.0490144L0.254312 6.55538C0.177867 6.59399 0.113579 6.65335 0.0686598 6.72682C0.0237404 6.8003 -3.29686e-05 6.88496 6.85357e-06 6.97132V17.0964C-0.000461761 17.1831 0.0231095 17.2683 0.0680528 17.3422C0.112996 17.4161 0.177517 17.4758 0.254312 17.5146L13.1305 24.021C13.1944 24.0532 13.2647 24.07 13.3361 24.07C13.4074 24.07 13.4778 24.0532 13.5416 24.021L26.4179 17.5146C26.4946 17.4758 26.5592 17.4161 26.6041 17.3422C26.6491 17.2683 26.6726 17.1831 26.6722 17.0964V6.97132C26.6722 6.88496 26.6484 6.8003 26.6035 6.72682C26.5586 6.65335 26.4943 6.59399 26.4179 6.55538Z" fill="#006A3F"/>
<path d="M25.4604 6.99994L13.5264 1.02111C13.4672 0.991494 13.402 0.976074 13.3359 0.976074C13.2697 0.976074 13.2045 0.991494 13.1453 1.02111L1.21129 6.99994C1.14044 7.03541 1.08085 7.08997 1.03922 7.15748C0.997589 7.22499 0.975555 7.3028 0.975592 7.38216V16.6862C0.975158 16.766 0.997005 16.8442 1.03866 16.9121C1.08031 16.9801 1.14011 17.035 1.21129 17.0706L13.1453 23.0494C13.2045 23.079 13.2697 23.0945 13.3359 23.0945C13.402 23.0945 13.4672 23.079 13.5264 23.0494L25.4604 17.0706C25.5316 17.035 25.5914 16.9801 25.6331 16.9121C25.6747 16.8442 25.6966 16.766 25.6961 16.6862V7.38216C25.6962 7.3028 25.6741 7.22499 25.6325 7.15748C25.5909 7.08997 25.5313 7.03541 25.4604 6.99994ZM13.3359 12.8835L10.0041 11.2142L20.6536 5.5458L24.319 7.38216L13.3359 12.8835ZM6.5944 9.50592L17.2438 3.83757L19.7159 5.07604L9.06773 10.7452L6.5944 9.50592ZM6.09018 10.2084L8.64748 11.4896V14.8924L7.67017 13.9132C7.59025 13.8331 7.48186 13.7881 7.36883 13.788H6.09018V10.2084ZM13.3359 1.88078L16.3074 3.3678L5.658 9.03701L2.35483 7.38216L13.3359 1.88078ZM1.82802 8.07314L5.23775 9.78137V14.2151C5.23775 14.3284 5.28266 14.437 5.36259 14.5171C5.44252 14.5972 5.55093 14.6422 5.66397 14.6422H7.19238L8.77236 16.2253C8.83197 16.285 8.9079 16.3256 8.99057 16.3421C9.07324 16.3586 9.15892 16.3501 9.23679 16.3178C9.31466 16.2855 9.38122 16.2308 9.42805 16.1605C9.47489 16.0903 9.49989 16.0078 9.49991 15.9233V11.9167L12.9096 13.6249V21.9741L1.82802 16.4223V8.07314ZM13.7621 21.9741V13.6249L24.8437 8.07314V16.4223L13.7621 21.9741Z" fill="white"/>
</svg>
