<svg width="70" height="14" viewBox="0 0 70 14" fill="none" xmlns="http://www.w3.org/2000/svg">
<path d="M8.8 0.919999H7.44L4.48 9.16L1.52 0.919999H0.16L3.84 11H5.12L8.8 0.919999ZM14.0688 9.08C13.8288 9.4 13.2688 9.96 12.3888 9.96C11.3488 9.96 10.3888 9 10.3088 7.96H15.4288C15.4288 7.96 15.5088 7.72 15.5088 7.32C15.5088 5.16 14.0688 3.72 12.3088 3.72C10.5488 3.72 9.02875 5.24 9.02875 7.4C9.02875 9.56 10.5488 11.08 12.3888 11.08C13.9088 11.08 14.8688 10.12 15.3488 9.08H14.0688ZM12.3088 4.84C13.2688 4.84 14.0688 5.64 14.2288 6.92H10.3088C10.4688 5.72 11.3488 4.84 12.3088 4.84ZM20.5425 3.72H20.3825C19.0225 3.72 18.3025 4.6 18.3025 4.6L17.9825 3.8H17.1025V11H18.3025V6.92C18.3025 5.72 19.1025 4.92 20.2225 4.92H20.5425V3.72ZM21.3394 9.96V11H26.4594V9.88H22.7794L26.2994 4.84V3.8H21.3394V4.92H24.8594L21.3394 9.96ZM32.5375 9.08C32.2975 9.4 31.7375 9.96 30.8575 9.96C29.8175 9.96 28.8575 9 28.7775 7.96H33.8975C33.8975 7.96 33.9775 7.72 33.9775 7.32C33.9775 5.16 32.5375 3.72 30.7775 3.72C29.0175 3.72 27.4975 5.24 27.4975 7.4C27.4975 9.56 29.0175 11.08 30.8575 11.08C32.3775 11.08 33.3375 10.12 33.8175 9.08H32.5375ZM30.7775 4.84C31.7375 4.84 32.5375 5.64 32.6975 6.92H28.7775C28.9375 5.72 29.8175 4.84 30.7775 4.84ZM38.8513 3.72C37.4913 3.72 36.7713 4.6 36.7713 4.6L36.4513 3.8H35.5713V11H36.7713V6.84C36.7713 5.64 37.5713 4.84 38.6913 4.84C39.6513 4.84 40.4513 5.64 40.4513 6.84V11H41.6513V6.84C41.6513 5 40.3713 3.72 38.8513 3.72ZM48.8494 7.4C48.8494 8.92 47.8094 9.96 46.6094 9.96C45.4094 9.96 44.3694 8.92 44.3694 7.4C44.3694 5.88 45.4094 4.84 46.6094 4.84C47.8094 4.84 48.8494 5.88 48.8494 7.4ZM49.0094 11H49.8894V0.919999H48.6894V4.68C48.6894 4.68 47.9694 3.72 46.5294 3.72C44.6894 3.72 43.1694 5.24 43.1694 7.4C43.1694 9.56 44.6894 11.08 46.5294 11.08C47.9694 11.08 48.6894 10.2 48.6894 10.2L49.0094 11ZM53.2556 3.8H52.0556V11H53.2556V3.8ZM51.8956 1.768C51.8956 2.2 52.2156 2.52 52.6476 2.52C53.0956 2.52 53.4156 2.2 53.4156 1.768C53.4156 1.32 53.0956 1 52.6476 1C52.2156 1 51.8956 1.32 51.8956 1.768ZM58.6169 3.72C57.2569 3.72 56.5369 4.6 56.5369 4.6L56.2169 3.8H55.3369V11H56.5369V6.84C56.5369 5.64 57.3369 4.84 58.4569 4.84C59.4169 4.84 60.2169 5.64 60.2169 6.84V11H61.4169V6.84C61.4169 5 60.1369 3.72 58.6169 3.72ZM68.295 10.76C68.295 11.8 67.495 12.6 66.295 12.6C65.255 12.6 64.775 12.12 64.535 11.56H63.335C63.655 12.76 64.615 13.72 66.295 13.72C68.215 13.72 69.495 12.44 69.495 10.76V3.8H68.615L68.295 4.6C68.295 4.6 67.655 3.72 66.215 3.72C64.375 3.72 62.935 5.16 62.935 7.24C62.935 9.32 64.375 10.76 66.215 10.76C67.655 10.76 68.295 9.8 68.295 9.8V10.76ZM64.135 7.24C64.135 5.8 65.095 4.84 66.295 4.84C67.495 4.84 68.455 5.8 68.455 7.24C68.455 8.68 67.495 9.64 66.295 9.64C65.095 9.64 64.135 8.68 64.135 7.24Z" fill="black"/>
</svg>
